# xmcd CD database file
#
# Track frame offsets:
#	150
#	16806
#	29455
#	48163
#	72205
#	97869
#	114379
#	125890
#	142795
#	165783
#	191719
#	206380
#
# Disc length: 3056 seconds
#
# Revision: 0
# Processed by: cddbd v1.4PL0 Copyright (c) Steve Scherf et al.
# Submitted via: CDex 1.40Beta8
#
DISCID=930bee0c
DTITLE=Bob Malone - Bob Malone
DYEAR=1900
DGENRE=Blues
TTITLE0=Raydaddy's Blues
TTITLE1=Don't Tell Me Where You've Been (Just Show Me What You Know)
TTITLE2=Goodbye L.A.
TTITLE3=You Think I'd Be Over This By Now
TTITLE4=What Are You Doing Here With Me?
TTITLE5=Born A Yankee
TTITLE6=Last Gasp Of A Single Man
TTITLE7=You've Got Your Room, I've Got Mine
TTITLE8=Table For One
TTITLE9=Road Ode
TTITLE10=Good Intentions
TTITLE11=Have A Little Faith In Me
EXTD=ID3G: 0
EXTT0=
EXTT1=
EXTT2=
EXTT3=
EXTT4=
EXTT5=
EXTT6=
EXTT7=
EXTT8=
EXTT9=
EXTT10=
EXTT11=
PLAYORDER=
